<?xml version="1.0" encoding="utf-8"?>
<!-- Generator: Adobe Illustrator 25.4.1, SVG Export Plug-In . SVG Version: 6.00 Build 0)  -->
<svg version="1.1" id="Layer_1" xmlns="http://www.w3.org/2000/svg" xmlns:xlink="http://www.w3.org/1999/xlink" x="0px" y="0px"
	 viewBox="0 0 1221 195" style="enable-background:new 0 0 1221 195;" xml:space="preserve">
<style type="text/css">
	.st0{fill-rule:evenodd;clip-rule:evenodd;fill:#BF4722;}
	.st1{font-family:'ProximaNova-Black';}
	.st2{font-size:196px;}
	.st3{font-size:144px;}
</style>
<g id="Page-1">
	<g id="Redwood-Logotype">
		<g id="logo">
			<path id="Shape" class="st0" d="M48.7,28.2L86.6,54c0.9,0.6,1.9,0.9,2.9,0.9c1,0,2-0.3,2.9-0.9l37.9-25.9
				c1.5-1.1,2.3-2.8,2.1-4.6c-0.1-1.8-1.2-3.4-2.9-4.2L91.7,0.5c-1.4-0.7-3.1-0.7-4.6,0L49.4,19.3c-1.7,0.8-2.8,2.4-2.9,4.3
				C46.3,25.4,47.2,27.2,48.7,28.2z M102.4,62.2c0,1.7,0.8,3.3,2.2,4.3l30.4,20.7c1.9,1.3,4.5,1.2,6.3-0.4L166.9,64
				c1.1-1,1.8-2.5,1.7-4c0-1.5-0.8-3-2-3.9l-24.3-19.4c-1.8-1.4-4.2-1.5-6.1-0.2L104.7,58C103.3,58.9,102.4,60.5,102.4,62.2z
				 M26.8,90.4c1.2,1.1,1.9,2.7,1.7,4.4c-0.2,1.7-1.1,3.1-2.6,3.9L7.8,109.6c-1.8,1.1-4.2,0.9-5.8-0.4c-1.7-1.3-2.4-3.6-1.7-5.6
				L7,82.4c0.5-1.7,1.9-3,3.5-3.4c1.7-0.5,3.5-0.1,4.8,1.1L26.8,90.4z M125.3,92.6L92.4,70.1c-1.7-1.2-4-1.2-5.8,0L53.9,92.6
				c-1.3,0.9-2.1,2.4-2.2,3.9c-0.1,1.6,0.5,3.2,1.7,4.2L86.1,130c0.9,0.8,2.2,1.3,3.4,1.3c1.3,0,2.5-0.5,3.4-1.3l32.8-29.3
				c1.2-1.1,1.8-2.6,1.7-4.2C127.4,94.9,126.6,93.5,125.3,92.6z M37.7,86.8L12.3,64c-1.1-1-1.8-2.5-1.7-4.1c0-1.5,0.7-3,1.9-3.9
				l24.3-19.6c1.8-1.4,4.3-1.5,6.1-0.2l31.5,21.5c1.5,1,2.3,2.6,2.3,4.3s-0.9,3.4-2.3,4.3L44.1,87.2C42.1,88.5,39.5,88.4,37.7,86.8z
				 M168.5,119.5L142.6,104c-1.9-1.2-4.4-0.9-6.1,0.6l-31.7,28.2c-1.3,1.2-2,3-1.7,4.8c0.3,1.8,1.5,3.3,3.2,3.9l44,17.8
				c0.6,0.3,1.2,0.4,1.9,0.4c2,0,3.9-1.2,4.7-3.1l13.6-30.5C171.7,123.7,170.8,120.9,168.5,119.5z M172.1,82.4l6.7,21.1h-0.1
				c0.5,1.6,0.2,3.3-0.8,4.6c-1,1.3-2.5,2.1-4.2,2.1c-0.9,0-1.8-0.2-2.6-0.7L153,98.7c-1.4-0.8-2.3-2.3-2.5-3.9
				c-0.2-1.6,0.5-3.3,1.7-4.4l11.5-10.3c1.3-1.2,3.1-1.6,4.8-1.1C170.2,79.5,171.6,80.8,172.1,82.4z M75.9,137.6
				c0.3-1.8-0.3-3.6-1.6-4.8l-31.7-28.2c-1.7-1.5-4.1-1.7-6.1-0.6l-25.9,15.5c-2.2,1.4-3.1,4.2-2.1,6.6l13.7,30.5
				c1.1,2.5,4.1,3.7,6.6,2.7l43.9-17.8C74.4,140.8,75.6,139.3,75.9,137.6z M91.5,146.3l35.3,14.3c1.7,0.7,2.9,2.4,3.1,4.2
				c0.2,1.9-0.6,3.8-2.2,4.8l-35.3,24.5c-0.8,0.6-1.8,0.9-2.9,0.9c-1,0-2-0.3-2.9-0.9l-35.3-24.5c-1.6-1.1-2.4-2.9-2.2-4.8
				c0.2-1.9,1.5-3.5,3.2-4.2l35.3-14.3C88.9,145.8,90.2,145.8,91.5,146.3z"/>
		</g>
		<g id="type" transform="translate(221.000000, 0.000000)">
			<path id="Shape_00000006702318398138714620000006196974744439634070_" d="M30.3,72.9h9.8c9.6,0,16.6-1.6,21.2-4.8
				c4.6-3.2,6.8-8.2,6.8-15.1c0-6.8-2.3-11.6-7-14.5c-4.6-2.9-11.8-4.3-21.6-4.3h-9.2V72.9z M30.3,97.6v55H0V9.2h41.6
				c19.4,0,33.8,3.6,43.1,10.7c9.3,7.1,14,17.8,14,32.3c0,8.4-2.3,16-6.9,22.6c-4.6,6.5-11.2,11.7-19.6,15.4
				c21.5,32.2,35.5,53.1,42,62.5H80.5l-34.1-55H30.3z"/>
			<path id="Shape_00000007415594006535617340000001567745178383229576_" d="M106,98.6"/>
			<path id="Path_00000085969547656256843860000009337871635056796351_" d="M842.5,194.8"/>
		</g>
	</g>
</g>
<text transform="matrix(1 0 0 1 335.1002 152.6465)" class="st1 st2">BAC</text>
<text transform="matrix(1 0 0 1 770.6262 147.6208)" class="st1 st3">Demo</text>
</svg>
